<?xml version="1.0" encoding="UTF-8"?>
<svg width="100pt" height="100pt" version="1.1" viewBox="0 0 100 100" xmlns="http://www.w3.org/2000/svg">
 <path d="m62.344 87.027h-24.688c-3.4062 0-6.1719-2.7656-6.1719-6.1719v-61.711c0-3.4062 2.7617-6.1719 6.1719-6.1719h24.684c3.4102 0 6.1719 2.7617 6.1719 6.1719v61.715c0.003906 3.4062-2.7578 6.168-6.168 6.168zm-11.828-1.0273c1.9883 0 3.6016-1.6094 3.6016-3.6016 0-1.9883-1.6094-3.6016-3.6016-3.6016-1.9883 0-3.5977 1.6094-3.5977 3.6016-0.003907 1.9922 1.6094 3.6016 3.5977 3.6016zm-8.7461-67.887c-0.56641 0-1.0273 0.46094-1.0273 1.0273s0.46094 1.0273 1.0273 1.0273c0.56641 0 1.0273-0.46094 1.0273-1.0273 0.003906-0.56641-0.45703-1.0273-1.0273-1.0273zm8.2305-4.1133c-0.56641 0-1.0273 0.46094-1.0273 1.0273s0.46094 1.0273 1.0273 1.0273c0.57031 0 1.0312-0.46094 1.0312-1.0273s-0.46484-1.0273-1.0312-1.0273zm4.1133 4.1133h-7.1992c-0.56641 0-1.0273 0.46094-1.0273 1.0273s0.46094 1.0273 1.0273 1.0273h7.1992c0.56641 0 1.0273-0.46094 1.0273-1.0273 0.003906-0.56641-0.45703-1.0273-1.0273-1.0273zm11.316 4.1172h-30.859v55.543h30.855zm-14.914 57.598c1.4219 0 2.5703 1.1523 2.5703 2.5703 0 1.4219-1.1523 2.5703-2.5703 2.5703s-2.5703-1.1484-2.5703-2.5703c-0.003906-1.418 1.1484-2.5703 2.5703-2.5703z" fill="#f43d70" fill-rule="evenodd"/>
</svg>
