<?xml version="1.0" encoding="UTF-8"?>
<svg width="100pt" height="100pt" version="1.1" viewBox="0 0 100 100" xmlns="http://www.w3.org/2000/svg">
 <path d="m81.707 17.219h-63.41c-5.168 0-9.3789 4.2109-9.3789 9.3828v46.805c0 5.168 4.2109 9.3828 9.3789 9.3828h63.414c5.168 0 9.375-4.2109 9.375-9.3828v-46.805c-0.003907-5.1719-4.207-9.3828-9.3789-9.3828zm-63.41 6.25h63.414c1.7227 0 3.125 1.4023 3.125 3.1328v3.4844l-15.887 10.992c-3.3672-7.1055-10.582-12.043-18.949-12.043-8.3633 0-15.582 4.9375-18.941 12.043l-15.895-10.992v-3.4844c0-1.7305 1.4062-3.1328 3.1328-3.1328zm63.41 53.062h-63.41c-1.7266 0-3.1328-1.4023-3.1328-3.1328v-35.719l14.051 9.7148c-0.10938 0.85938-0.17969 1.7227-0.17969 2.6055 0 11.559 9.4062 20.965 20.965 20.965 3.1445 0 6.1719-0.67969 8.9961-2.0195l-2.6797-5.6484c-1.9844 0.94141-4.1094 1.4141-6.3203 1.4141-8.1133 0-14.715-6.6016-14.715-14.715 0-8.1133 6.6016-14.715 14.715-14.715 8.1172 0 14.715 6.6016 14.715 14.715 0 1.2109-0.14844 2.4062-0.44141 3.5703-0.12109 0.48047-0.90234 2.2891-1.8125 2.3047-0.61719-0.41016-1.293-3.1445-1.2109-5.75h-0.011719c0-0.039063 0.011719-0.070313 0.011719-0.10938 0-9.9141-5.4141-12.047-10.055-12.09-5.2852 0-10.133 3.9258-11.785 9.5469-1.2148 4.1172-0.75 7.9102 1.3125 10.668 1.8867 2.5234 4.9609 3.9688 8.4336 3.9688 3.0391 0 5.793-1.1641 7.918-3.0273 0.25 0.38281 0.51953 0.75781 0.83594 1.0859 1.2227 1.2695 2.7891 1.9414 4.5273 1.9414 4.8828 0 7.3008-4.6094 7.8984-7.0312 0.41406-1.6523 0.62109-3.3633 0.62109-5.0781 0-0.88281-0.070313-1.7461-0.17969-2.6016l14.043-9.7148v35.719c0.015625 1.7305-1.3867 3.1328-3.1094 3.1328zm-26.699-26.52v0.011719c0 3.2148-2.6172 5.8359-5.8438 5.8359-1.5078 0-2.7227-0.51953-3.4258-1.4609-0.85156-1.1484-0.97266-2.9766-0.32812-5.1562 0.98047-3.3242 3.6562-5.0664 5.8281-5.0664 1.7617 0.019531 3.7695 0.035157 3.7695 5.8359z" fill="#f43d70"/>
</svg>
