<?xml version="1.0" encoding="UTF-8"?>
<svg width="100pt" height="100pt" version="1.1" viewBox="0 0 100 100" xmlns="http://www.w3.org/2000/svg">
 <path d="m99.207 15.871h-98.414c-0.4375 0-0.79297 0.35547-0.79297 0.79688v66.668c0 0.4375 0.35547 0.79297 0.79297 0.79297h98.414c0.4375 0 0.79297-0.35547 0.79297-0.79297v-66.668c0-0.44141-0.35547-0.79688-0.79297-0.79688zm-49.207 22.102c8.4492 0 15.324 6.9297 15.324 15.445s-6.875 15.445-15.324 15.445-15.324-6.9297-15.324-15.445 6.875-15.445 15.324-15.445zm0-1.5859c-6.4492 0-12.062 3.6523-14.914 9.0117l-32.168-27.938h94.164l-32.168 27.938c-2.8516-5.3594-8.4648-9.0117-14.914-9.0117zm-48.414 46.152v-64.133l32.793 28.48c-0.83203 2.0117-1.293 4.2188-1.293 6.5312 0 9.3906 7.5859 17.031 16.914 17.031 9.3242 0 16.914-7.6406 16.914-17.031 0-2.3125-0.46094-4.5195-1.293-6.5312l32.793-28.48v64.133zm48.336-17.23c0.20312 0.011718 0.40625 0.015625 0.60938 0.015625 1.2031 0 2.3867-0.17969 3.5234-0.53516 2.6758-0.83594 5.0508-2.7266 6.6875-5.3203 0.23437-0.37109 0.12109-0.85938-0.24609-1.0938-0.37109-0.23438-0.85938-0.12109-1.0938 0.24609-0.83203 1.3203-2.6953 3.6758-5.8164 4.6523-1.1523 0.35937-2.3555 0.51172-3.582 0.44922-5.2539-0.26562-9.5273-4.6094-9.7344-9.8906-0.10938-2.8477 0.91016-5.5391 2.875-7.582 1.9531-2.0312 4.5742-3.1484 7.3828-3.1484 1.5312 0 2.8047 0.38281 3.0469 0.46094 1.7383 0.55859 3.2852 1.5898 4.5938 3.0625 1.5391 1.7305 1.9844 4.1602 1.1328 6.1875-0.63672 1.5117-1.6602 2.2578-2.3945 2.3242-1.1953 0.10547-2.9375-1.3789-3.7188-3.7773 0-0.003906-0.003906-0.007813-0.003906-0.007813-0.027344-0.082031-0.054688-0.16016-0.078125-0.24219-0.019531-0.066406-0.050781-0.12891-0.085938-0.1875-0.28906-0.65234-0.75781-1.1914-1.3867-1.5117-0.71875-0.36719-1.5742-0.41797-2.4141-0.14453-1.1484 0.375-2.1641 1.2969-2.793 2.5352-1.1172 2.2109-0.60547 4.7344 1.1406 5.625 0.41406 0.21094 0.875 0.31641 1.3516 0.31641 0.35156 0 0.70703-0.058594 1.0625-0.17188 1.1484-0.375 2.1641-1.2969 2.793-2.5352 0.097656-0.19141 0.17578-0.38281 0.25-0.57812 1.125 1.4883 2.6211 2.3906 4.0273 2.2617 1.4727-0.13281 2.9297-1.4258 3.7109-3.293 1.0859-2.5859 0.53125-5.668-1.4102-7.8555-1.5039-1.6914-3.2852-2.875-5.2969-3.5234-0.28125-0.089844-1.7656-0.53516-3.5312-0.53516-3.2461 0-6.2734 1.2891-8.5273 3.6328-2.2656 2.3555-3.4453 5.4609-3.3203 8.7422 0.24219 6.1016 5.1797 11.117 11.246 11.422zm1.4414-10.988c-0.42969 0.85156-1.1289 1.5039-1.8672 1.7422-0.30859 0.10156-0.76562 0.17188-1.1992-0.050781-0.95312-0.48828-1.1602-2.0898-0.44531-3.4961 0.42969-0.85156 1.1289-1.5039 1.8672-1.7422 0.16016-0.050782 0.35938-0.097657 0.57422-0.097657 0.20312 0 0.41797 0.039063 0.625 0.14453 0.3125 0.16016 0.54297 0.44141 0.69141 0.79688 0.035156 0.11719 0.070313 0.23047 0.10938 0.34375 0.16016 0.69141 0.050781 1.5547-0.35547 2.3594z" fill="#f43d70"/>
</svg>
